<?xml version="1.0" encoding="UTF-8"?><svg id="a" xmlns="http://www.w3.org/2000/svg" viewBox="0 0 335.26 359.3"><defs><style>.b{fill:#fff;}</style></defs><path class="b" d="M167.62,191.62c-52.85,0-95.82-42.95-95.82-95.8C71.79,42.95,114.72,.01,167.59,0c52.88-.01,95.82,42.91,95.83,95.79,.01,52.87-42.93,95.82-95.8,95.83Z"/><path class="b" d="M80.28,177.77c22.64,23.12,49.52,35.46,80.8,37.69-29.27,53.48-22,101.21,21.52,143.71-.57,.03-1.61,.12-2.65,.12-47.4,0-94.79,.02-142.19,0C15.37,359.28-.21,343.85,0,321.48c.13-13.82-.48-27.85,1.65-41.41,7.55-48.13,34.83-81.59,78.63-102.3Z"/><path class="b" d="M167.61,275.54c.08-46.56,37.71-84.01,84.32-83.92,45.52,.09,83.4,37.82,83.33,83-.07,47.67-37.35,84.78-85.04,84.64-45.16-.13-82.68-38.16-82.61-83.73Zm71.86-12.06c-3.99,0-7.58-.02-11.18,0-7.35,.06-12.67,4.98-12.77,11.77-.1,6.94,5.29,12.1,12.77,12.17,3.68,.03,7.37,0,11.18,0,0,1.94,0,3.42,0,4.91,0,13.33,3.52,18.98,11.89,19.04,8.42,.06,12.07-5.64,12.07-18.85,0-1.68,0-3.36,0-5.09,4.27,0,8.01,.06,11.74-.01,6.96-.13,12.21-5.32,12.2-11.98,0-6.64-5.28-11.83-12.23-11.95-3.82-.07-7.65-.01-11.72-.01,0-3.92,.03-7.51,0-11.1-.06-7.52-5.15-12.91-12.09-12.85-6.81,.06-11.79,5.37-11.86,12.69-.04,3.6,0,7.2,0,11.26Z"/></svg>