<?xml version="1.0" encoding="UTF-8"?><svg id="a" xmlns="http://www.w3.org/2000/svg" viewBox="0 0 287.64 203.65"><defs><style>.b{fill:#03050a;}</style></defs><path class="b" d="M143.76,35.94c-41.66,0-83.32,.02-124.99,0-13.01,0-21.43-10.95-18-23.17C2.79,5.62,9.12,.54,16.63,.05c.87-.06,1.75-.04,2.62-.04,83.08-.01,166.15-.01,249.23-.01,10.74,0,18.39,6.66,19.07,16.51,.75,10.84-7.04,19.33-18.05,19.39-16.84,.1-33.68,.03-50.52,.03h-75.22Z"/><path class="b" d="M143.4,119.79c-41.54,0-83.08,.02-124.61-.01-13.01-.01-21.44-10.94-18-23.16,2-7.14,8.33-12.22,15.85-12.72,.87-.06,1.75-.04,2.62-.04h249.23c13.33,0,21.84,10.78,18.37,23.16-2.15,7.66-8.88,12.71-17.34,12.75-16.22,.07-32.43,.02-48.65,.02h-77.47Z"/><path class="b" d="M144.07,167.71c41.66,0,83.32-.03,124.99,.02,12.78,0,21.12,10.88,17.81,22.99-1.97,7.2-8.17,12.3-15.71,12.87-.99,.08-1.99,.05-2.99,.05H19.32C7.92,203.64,.1,196.36,.05,185.79c-.05-10.06,7.45-17.9,17.54-18.04,10.85-.15,21.7-.04,32.56-.04h93.92Z"/></svg>