<?xml version="1.0" encoding="UTF-8"?><svg id="a" xmlns="http://www.w3.org/2000/svg" viewBox="0 0 287.61 203.64"><defs><style>.b{fill:#fff;}</style></defs><path class="b" d="M143.75,35.94c-41.66,0-83.32,.02-124.99-.01-13.01-.01-21.43-10.95-18-23.17C2.78,5.62,9.11,.54,16.62,.05c.87-.06,1.75-.04,2.62-.04C102.32,0,185.39,0,268.47,0c10.74,0,18.39,6.66,19.07,16.51,.75,10.84-7.04,19.33-18.05,19.39-16.84,.1-33.68,.03-50.52,.03-25.07,0-50.14,0-75.22,0Z"/><path class="b" d="M143.39,119.79c-41.54,0-83.08,.02-124.61-.01-13.01-.01-21.44-10.94-18-23.16,2-7.14,8.33-12.22,15.85-12.72,.87-.06,1.75-.04,2.62-.04,83.08,0,166.15,0,249.23,0,13.33,0,21.84,10.78,18.37,23.16-2.15,7.66-8.88,12.71-17.34,12.75-16.22,.07-32.43,.02-48.65,.02-25.82,0-51.64,0-77.46,0Z"/><path class="b" d="M144.06,167.71c41.66,0,83.32-.03,124.99,.02,12.78,.01,21.12,10.88,17.81,22.99-1.97,7.2-8.17,12.3-15.71,12.87-.99,.08-1.99,.05-2.99,.05-82.95,0-165.9,0-248.85,0-11.4,0-19.22-7.28-19.27-17.85-.05-10.06,7.45-17.9,17.54-18.04,10.85-.15,21.7-.04,32.56-.04,31.31,0,62.62,0,93.93,0Z"/></svg>