<?xml version="1.0" encoding="UTF-8"?><svg id="a" xmlns="http://www.w3.org/2000/svg" viewBox="0 0 383.19 378.92"><defs><style>.b{fill:#fff;}</style></defs><path class="b" d="M383.19,349.61c-.8,2.29-1.54,4.6-2.41,6.86-6.14,15.95-21.76,24.39-40.25,22-9.3-1.21-16.89-5.36-23.46-11.95-40.88-40.97-81.83-81.88-122.74-122.81-.97-.97-1.78-2.09-2.88-3.39-1.4,1.34-2.47,2.32-3.49,3.34-41.37,41.36-82.73,82.73-124.1,124.1-12.27,12.27-33.53,14.8-48.36,5.77-17.29-10.53-20.78-36.23-7.11-52.4,1.21-1.43,2.52-2.77,3.84-4.09,41.36-41.37,82.72-82.74,124.1-124.1,1.14-1.14,2.44-2.1,4.53-3.87-1.57-1.02-2.64-1.48-3.41-2.25C95.9,145.3,54.36,103.76,12.82,62.21-1.63,47.77-1.89,24.99,12.22,10.86c14.47-14.49,37.05-14.48,51.63,.01,41.84,41.6,83.68,83.19,125.52,124.8,.61,.61,1.1,1.35,2.66,3.29,1.09-1.8,1.65-3.31,2.69-4.35,40.8-40.88,81.6-81.75,122.49-122.54,20.09-20.05,53.09-12.23,60.95,14.55,3.95,13.46,1.12,25.69-8.96,35.79-41.07,41.13-82.19,82.22-123.29,123.32-.95,.95-1.87,1.95-3.07,3.21,4.21,4.13,8.31,8.11,12.36,12.13,37.69,37.45,75.3,75,113.14,112.3,7.08,6.97,12.38,14.66,14.88,24.26v11.98Z"/></svg>