<?xml version="1.0" encoding="UTF-8"?><svg id="a" xmlns="http://www.w3.org/2000/svg" viewBox="0 0 396.25 393.96"><defs><style>.b{fill:#03050a;}</style></defs><path class="b" d="M0,381.27c1.5-5.76,3.18-11.48,4.48-17.28,5.35-23.81,10.59-47.64,15.69-70.68,26.32,26.27,52.91,52.8,79.4,79.24-10.08,2.47-21,5.17-31.93,7.82-17.6,4.25-35.28,8.19-52.78,12.84C8.32,394.94,3.65,393.81,0,388.23v-6.96Z"/><path class="b" d="M122.64,349.57c-26.44-26.37-53.14-53.01-79.64-79.45C110.81,202.37,178.66,134.58,246.31,66.98c26.35,26.36,53.09,53.11,79.44,79.47-67.63,67.63-135.47,135.47-203.11,203.12Z"/><path class="b" d="M267.84,45.42c12.08-12.35,23.6-25.06,36.14-36.67,12.86-11.92,33.23-11.57,46.14,.5,13.35,12.48,26.22,25.51,38.81,38.75,9.12,9.59,9.99,25.15,1.06,34.61-13.76,14.58-28.66,28.08-43,41.97-26.01-26.01-52.69-52.69-79.15-79.15Z"/></svg>