<?xml version="1.0" encoding="UTF-8"?><svg id="a" xmlns="http://www.w3.org/2000/svg" viewBox="0 0 1035.83 901"><defs><style>.b{fill:#fff;}.c{fill:#0f44ef;}</style></defs><path class="c" d="M156.55,376.18h2.34c.26,.1,.52,.25,.79,.3,1.2,.23,2.32,.65,3.37,1.25,2.71,1.56,5.41,3.12,8.12,4.69,9.94,5.74,19.88,11.48,29.81,17.23,3.84,2.22,7.72,4.36,11.5,6.68,3.27,2.01,4.98,5.06,4.99,8.92,.02,23.47,.02,46.94,0,70.41,0,4.08-1.85,7.18-5.32,9.25-3.41,2.04-6.87,3.98-10.32,5.97-12.87,7.43-25.73,14.86-38.59,22.29-1.79,1.03-3.7,1.57-5.75,1.65-.52,.02-1.06-.18-1.59-.27-1.27-.21-2.45-.66-3.57-1.3-9.1-5.26-18.2-10.52-27.3-15.77-7.2-4.16-14.41-8.32-21.62-12.48-2.9-1.68-4.68-4.17-5.32-7.46-.04-.2-.09-.39-.14-.59v-72.86c.03-.11,.07-.22,.09-.34,.6-3.53,2.51-6.11,5.61-7.88,7.38-4.23,14.73-8.5,22.1-12.75,8.86-5.12,17.73-10.24,26.59-15.35,1.07-.62,2.2-1.05,3.42-1.28,.27-.05,.53-.2,.79-.3Zm-43.47,74.28h.03c0,1.85,0,3.7,0,5.55,0,2.78-.03,5.57-.03,8.35,0,4.62-.03,9.24,0,13.86,.03,3.12,1.37,5.57,4.1,7.16,3.93,2.3,7.87,4.57,11.81,6.84,8.19,4.73,16.38,9.46,24.58,14.18,2.75,1.58,5.53,1.58,8.28,0,3.2-1.83,6.38-3.68,9.57-5.53,8.92-5.15,17.85-10.3,26.77-15.47,2.77-1.6,4.13-4.07,4.15-7.23,.03-4.89-.02-9.78-.02-14.67,0-2.89,.03-5.77,.03-8.66,0-10.65,.01-21.29,0-31.94,0-3.27-1.43-5.77-4.29-7.41-3.28-1.89-6.56-3.78-9.84-5.68-8.79-5.08-17.58-10.17-26.38-15.23-2.72-1.57-5.49-1.57-8.24,0-1.96,1.12-3.92,2.25-5.87,3.38-10.11,5.84-20.23,11.69-30.34,17.53-2.88,1.66-4.3,4.16-4.3,7.46-.01,9.17,0,18.34,0,27.51Z"/><g><path class="b" d="M122.42,439.97c0-4.38,0-8.76,0-13.14,0-.46-.04-.94,.45-1.21,.5-.27,.85,.04,1.25,.28,2.39,1.4,4.79,2.77,7.19,4.16,6.2,3.58,12.41,7.17,18.61,10.75,4.58,2.64,9.18,5.27,13.76,7.91,7.05,4.07,14.1,8.16,21.15,12.24,2.55,1.48,5.11,2.96,7.66,4.43,.35,.2,.53,.49,.53,.91,0,2.24,.13,4.49-.04,6.72-.27,3.75-2.14,6.6-5.4,8.49-5.2,3.01-10.42,5.98-15.62,8.98-2.84,1.63-5.66,3.29-8.51,4.91-3.85,2.19-7.73,2.21-11.57,0-6.58-3.77-13.14-7.58-19.71-11.37-1.46-.84-2.91-1.67-4.36-2.52-3.11-1.82-4.88-4.54-5.37-8.1-.03-.22-.03-.44-.03-.66,0-3.72,0-7.44,0-11.16,0-.43,.06-.81,.48-1.04,.42-.22,.73,0,1.08,.2,3.43,1.99,6.87,3.98,10.31,5.96,6.33,3.66,12.66,7.32,19,10.97,2.91,1.68,5.84,1.68,8.76,.01,2.73-1.56,5.44-3.14,8.16-4.71,.82-.47,.82-1.52,.02-1.98-3.59-2.07-7.17-4.14-10.76-6.21-6.38-3.68-12.76-7.35-19.14-11.02-.23-.13-.49-.23-.75-.26-.7-.07-1.16,.37-1.16,1.09,0,2.33,0,4.65,0,6.98,0,.4-.07,.74-.44,.96-.37,.22-.71,.11-1.05-.09-4.46-2.58-8.93-5.16-13.4-7.74-.16-.09-.31-.21-.48-.29-.49-.25-.63-.64-.63-1.17,.01-4.43,0-8.87,0-13.3Z"/><path class="b" d="M193.03,442.44c0,5.18,0,10.36,0,15.54v.02c0,1.09-.76,1.53-1.7,.99-9.05-5.23-18.1-10.46-27.15-15.69-.37-.21-.69-.47-.68-.94,0-.48,.37-.66,.74-.87,2.23-1.27,4.45-2.55,6.66-3.84,6.88-3.98,13.76-7.95,20.64-11.93,.83-.48,1.49-.1,1.49,.88,0,5.28,0,10.56,0,15.84Z"/></g><g><rect class="b" x="614.77" y="459.21" width=".03" height=".02" transform="translate(-144.48 570.38) rotate(-45.09)"/><polygon class="b" points="641.63 432.34 622.41 432.24 610.11 444.55 619.77 454.22 641.63 432.34"/><g><path class="b" d="M295.12,465.15c0,1.87-.17,3.48-.5,4.79-.27,1.05-.72,1.87-1.36,2.51-.66,.65-1.64,1.17-2.9,1.52-1.49,.43-3.48,.64-5.94,.64h-19.11c-1.83,0-3.35-.13-4.55-.38-.73-.17-1.28-.47-1.7-.99-.37-.45-.87-1.37-1.22-3.21-.33-1.81-.51-4.32-.51-7.51v-5.65h-14.08v5.68c0,4.24,.24,7.87,.72,10.79,.53,3.28,1.65,6.01,3.34,8.11,1.74,2.18,4.18,3.75,7.26,4.66,2.8,.83,6.32,1.23,10.73,1.23h19.11c4.32,0,8.04-.39,11.05-1.16,3.25-.83,5.93-2.18,7.99-4.04,2.1-1.89,3.62-4.33,4.51-7.26,.83-2.69,1.24-5.91,1.24-9.61v-49.36h-14.1v49.23Z"/><polygon class="b" points="428.1 415.92 428.1 487.34 414.02 487.34 414.02 435.09 379.65 487.34 368.2 487.34 333.23 434.18 333.23 487.34 319.15 487.34 319.15 415.92 336.86 415.92 336.87 415.93 373.44 470.89 410.05 415.93 410.06 415.92 428.1 415.92"/></g><path class="b" d="M457.95,487.34h14.08v-25.94h32.5c5.1,0,9.47-.21,12.99-.61,3.62-.42,6.68-1.06,9.11-1.89,2.62-.91,4.72-2.1,6.23-3.54,1.53-1.46,2.68-3.19,3.38-5.14,.66-1.78,1.05-3.79,1.16-5.95,.11-1.94,.15-4.05,.15-6.29s-.04-4.17-.11-5.97c-.08-2.01-.39-3.88-.92-5.55-.59-1.84-1.53-3.46-2.81-4.83-1.29-1.37-3.06-2.51-5.29-3.38-2.07-.81-4.57-1.39-7.64-1.78-2.89-.36-6.47-.55-10.62-.55h-52.22v71.42Zm14.08-58.7h32.5c3.59,0,6.65,.05,9.09,.13,2.33,.07,4.26,.25,5.73,.52,1.65,.31,2.43,.68,2.75,.87,.38,.24,.63,.51,.79,.89,.26,.57,.42,1.35,.47,2.3,.07,1.29,.11,2.83,.11,4.63,0,1.92-.04,3.61-.11,4.99-.06,1.1-.22,2.02-.52,2.73-.2,.5-.48,.87-.91,1.17-.38,.27-1.13,.65-2.66,.97-1.45,.31-3.38,.53-5.7,.65-2.44,.12-5.49,.19-9.04,.19h-32.5v-20.03Z"/><rect class="b" x="546.69" y="413.6" width="14.1" height="14.1"/><rect class="b" x="546.69" y="432.33" width="14.1" height="55.05"/><path class="b" d="M702.76,443.87c-.84-1.94-1.98-3.8-3.42-5.55-1.51-1.83-3.47-3.39-5.84-4.65-2.28-1.22-5.02-2.14-8.15-2.76-3.03-.6-6.63-.91-10.71-.91-5.64,0-10.53,.44-14.53,1.3-4.29,.93-7.85,2.61-10.61,5.01-2.8,2.44-4.84,5.71-6.08,9.75-1.17,3.78-1.76,8.55-1.76,14.19,0,5.01,.6,9.27,1.79,12.66,1.26,3.64,3.34,6.6,6.17,8.8,2.75,2.11,6.29,3.62,10.54,4.46,3.98,.79,8.85,1.18,14.47,1.18,5.24,0,9.73-.27,13.35-.81,3.86-.59,6.93-1.51,9.37-2.85,2.68-1.44,4.64-3.39,5.83-5.81,1.12-2.27,1.7-4.98,1.7-8.06v-2.95h-14.1v2.95c0,1.06-.17,1.92-.48,2.46-.3,.52-1.02,.89-1.57,1.1-1.17,.46-2.87,.78-5.03,.96-2.36,.2-5.41,.3-9.08,.3-3.98,0-7.34-.14-10.01-.41-2.33-.25-4.16-.79-5.47-1.62-1.11-.71-1.91-1.87-2.44-3.53-.44-1.42-.73-3.14-.87-5.17h47.72l1.33-5.31v-.37c0-2.63-.14-5.17-.42-7.56-.31-2.55-.89-4.82-1.71-6.78Zm-46.91,8.65c.07-1.1,.19-2.08,.35-2.94,.31-1.68,.73-2.54,1.04-2.96,.47-.66,1.12-1.26,1.92-1.78,.86-.54,1.94-.97,3.22-1.28,1.42-.34,3.13-.57,5.1-.67,2.09-.11,4.5-.17,7.15-.17,3.21,0,5.97,.21,8.19,.63,1.94,.37,3.49,1.02,4.64,1.92,1.12,.9,1.92,2.01,2.44,3.4,.38,.99,.63,2.28,.77,3.85h-34.84Z"/><rect class="b" x="716.6" y="415.96" width="14.1" height="71.42"/><path class="b" d="M798.99,434.27c-2.4-1.37-5.45-2.34-9.36-2.97-3.65-.59-8.31-.89-13.84-.89s-10.37,.25-14.28,.74c-4.14,.53-7.47,1.38-10.15,2.61-2.92,1.35-5.1,3.15-6.49,5.41-1.36,2.21-2.05,4.9-2.05,8,0,2.08,.19,4.05,.58,5.84,.42,2.03,1.19,3.78,2.28,5.22,1.11,1.48,2.62,2.67,4.45,3.52,1.66,.78,3.65,1.35,6.06,1.75,2.23,.38,4.9,.63,7.95,.74,2.94,.12,6.41,.18,10.31,.18,3.13,0,5.82,.05,8.02,.14,2.13,.09,3.92,.26,5.32,.48,1.59,.25,2.47,.53,2.92,.72,.41,.18,.58,.37,.65,.48,.25,.4,.41,.78,.47,1.12,.09,.55,.14,1.23,.14,1.98,0,.87-.05,1.66-.15,2.35-.06,.39-.19,.72-.41,1.03-.2,.28-.57,.57-1.07,.83-.47,.25-1.4,.61-3.09,.98-1.48,.31-3.36,.54-5.62,.68-2.33,.15-5.19,.22-8.54,.22-3.66,0-6.71-.09-9.07-.31-2.14-.19-3.83-.52-4.99-1-.8-.33-1.33-.73-1.58-1.18-.33-.61-.51-1.56-.51-2.74v-2.95h-14.1v2.95c0,3.05,.58,5.71,1.71,7.92,1.2,2.33,3.16,4.23,5.83,5.63,2.46,1.29,5.52,2.2,9.37,2.76,3.61,.52,8.1,.79,13.33,.79,4.16,0,7.85-.12,11-.37,3.21-.26,6.02-.65,8.37-1.17,2.48-.57,4.6-1.32,6.32-2.27,1.82-1,3.29-2.25,4.39-3.7,1.1-1.45,1.88-3.14,2.31-4.99,.39-1.68,.59-3.58,.59-5.64s-.2-3.95-.59-5.58c-.45-1.83-1.24-3.45-2.35-4.83-1.03-1.27-2.4-2.46-4.06-3.52-1.7-1.07-3.81-1.87-6.29-2.36-2.25-.45-4.93-.77-7.98-.94-2.95-.18-6.43-.26-10.34-.26-3.18,0-5.89-.01-8.13-.02-2.14-.01-3.94-.09-5.36-.25-1.61-.15-2.47-.38-2.93-.54-.44-.15-.59-.31-.64-.38-.14-.18-.25-.5-.31-.89-.11-.79-.15-1.62-.15-2.44,0-.94,.15-1.65,.47-2.05,.19-.24,.71-.68,2.11-1.06,1.49-.4,3.54-.65,6.09-.76,2.75-.11,6.19-.17,10.21-.17,3.66,0,6.71,.11,9.07,.31,2.16,.19,3.87,.51,5.05,.97,.8,.31,1.36,.67,1.58,1.05,.3,.48,.45,1.26,.45,2.23v2.95h14.1v-2.95c0-2.89-.51-5.47-1.51-7.64-1.07-2.35-2.94-4.3-5.54-5.78Z"/><polygon class="b" points="595.86 478.16 605.12 468.9 605.11 468.89 595.86 478.16"/><polygon class="b" points="595.86 478.16 605.11 468.89 605.12 468.9 614.78 459.24 614.77 459.22 614.79 459.2 605.13 449.54 605.11 449.56 587.82 432.24 568.6 432.34 595.46 459.22 567.41 487.31 586.63 487.4 588.61 485.41 588.61 485.41 595.86 478.16"/><polygon class="b" points="619.76 464.22 610.1 473.88 623.6 487.4 642.82 487.31 619.76 464.22"/><polygon class="b" points="588.61 485.41 588.61 485.41 595.86 478.16 588.61 485.41"/></g></svg>