<?xml version="1.0" encoding="UTF-8"?><svg id="a" xmlns="http://www.w3.org/2000/svg" viewBox="0 0 455.91 455.82"><defs><style>.b{fill:#fff;stroke:#fff;stroke-miterlimit:10;stroke-width:30px;}</style></defs><path class="b" d="M232.12,15c3.52,1.98,7.42,3.5,10.48,6.04,5.37,4.47,6.75,10.8,6.74,17.59-.04,54.16-.02,108.31-.02,162.47,0,1.64,0,3.28,0,5.45,1.83,0,3.43,0,5.03,0,53.19,0,106.39,.2,159.58-.14,13.3-.08,22.72,4.17,26.96,17.34v9.15c-.3,.41-.7,.77-.88,1.23-4.22,10.46-11,15.11-22.34,15.13-24.81,.03-49.63,0-74.44,0-29.66,0-59.33,0-88.99,0-1.49,0-2.99,0-4.93,0,0,1.92,0,3.53,0,5.15,0,54.33,.01,108.66,0,162.99,0,12.15-6.2,20.45-16.98,22.91-11.32,2.59-23.19-5.19-25.18-16.61-.43-2.44-.53-4.96-.53-7.44-.03-54.05-.02-108.11-.02-162.16v-4.84c-1.99,0-3.61,0-5.24,0-54.34,0-108.68,.01-163.02,0-12.09,0-20.43-6.29-22.86-17.06-2.55-11.32,5.28-23.16,16.73-25.1,2.44-.42,4.96-.52,7.45-.52,53.78-.03,107.57-.02,161.35-.02,1.66,0,3.31,0,5.59,0,0-1.72,0-3.31,0-4.9,0-53.36,.19-106.72-.13-160.08-.08-13.2,4.39-22.38,17.33-26.57h8.32Z"/></svg>