<?xml version="1.0" encoding="UTF-8"?><svg id="a" xmlns="http://www.w3.org/2000/svg" viewBox="0 0 366.44 366.29"><defs><style>.b{fill:#fff;}.c{fill:#3d3d3d;}.d{fill:#202020;}.e{fill:#484848;}</style></defs><path class="b" d="M337.1,366.29h-11.45c-.34-.26-.65-.69-1.03-.77-8.12-1.78-14.35-6.49-20.09-12.27-21.49-21.65-43.13-43.17-64.7-64.75-5.37-5.38-10.72-10.79-16.05-16.16-.74,.41-1.15,.64-1.56,.88-30.68,17.78-63.53,23.93-98.63,18.75C63.97,283.17,13.82,234.86,2.82,175.39c-.93-5.05-1.88-10.11-2.82-15.16,0-1.91,0-3.82,0-5.72l.66-3.54-.04-8L0,138.76v-4.29c.25-.72,.65-1.42,.73-2.15,1.32-12.12,3.82-23.98,8.05-35.41C34.74,26.69,106.62-12.51,179.72,3.6c85.57,18.86,135.93,111.02,105.39,193.16-3.42,9.19-7.97,17.97-12.22,27.45,14.36,14.28,29.18,28.96,43.93,43.71,13.58,13.57,27.45,26.88,40.53,40.91,17.03,18.27,8.97,47.9-14.72,55.77-1.83,.61-3.69,1.13-5.54,1.7ZM147.07,60.6c-47.86-.04-86.32,38.33-86.38,86.19-.07,47.84,38.31,86.37,86.11,86.48,47.99,.1,86.61-38.43,86.58-86.4-.03-47.85-38.42-86.23-86.31-86.27Z"/><path class="d" d="M.62,142.97c.01,2.67,.03,5.33,.04,8-.22-.03-.44-.04-.66-.04v-7.87c.21-.02,.42-.05,.62-.08Z"/><path class="e" d="M.62,142.97c-.21,.04-.41,.06-.62,.08v-4.29l.62,4.21Z"/><path class="c" d="M0,150.93c.22,0,.44,.01,.66,.04C.44,152.15,.22,153.33,0,154.5v-3.58Z"/></svg>