<?xml version="1.0" encoding="UTF-8"?><svg id="a" xmlns="http://www.w3.org/2000/svg" viewBox="0 0 336.39 344.4"><defs><style>.b{fill:#fff;}</style></defs><path class="b" d="M0,223.77c1.69-2.31,2.98-5.08,5.12-6.81,10.85-8.78,21.89-17.34,32.96-25.85,1.83-1.41,2.11-2.72,2.04-4.97-.27-9.2-.3-18.43-.02-27.63,.07-2.28-.29-3.6-2.06-4.97-10.86-8.38-21.63-16.86-32.44-25.31-5.35-4.19-6.1-7.94-2.65-13.9,10.84-18.75,21.7-37.49,32.57-56.22,3.43-5.92,7.15-7.2,13.42-4.69,12.81,5.13,25.64,10.23,38.4,15.49,2.04,.84,3.31,.4,5.06-.66,7.95-4.85,16-9.55,24.11-14.15,1.6-.91,2.65-1.57,2.93-3.67,1.8-13.59,3.86-27.14,5.73-40.72C126.1,2.79,129.03,.01,135.93,0c21.84-.01,43.68-.01,65.51,0,6.67,0,9.69,2.86,10.6,9.5,1.84,13.46,3.85,26.89,5.65,40.35,.29,2.15,1.28,3.04,3.08,4.04,8.14,4.53,16.19,9.21,24.14,14.07,1.77,1.08,3.03,1.45,5,.65,12.54-5.14,25.13-10.15,37.71-15.2,7.11-2.85,10.43-1.73,14.25,4.85,10.74,18.52,21.48,37.04,32.21,55.56,3.71,6.41,3.07,9.79-2.84,14.44-10.68,8.4-21.36,16.81-32.13,25.09-1.79,1.38-2.18,2.63-2.11,4.93,.28,9.32,.24,18.67,0,27.99-.05,2.01,.26,3.1,1.83,4.32,10.95,8.46,21.83,17.02,32.71,25.58,5.49,4.32,6.18,7.83,2.68,13.87-10.91,18.85-21.84,37.69-32.79,56.52-3.2,5.51-7.02,6.85-12.87,4.5-12.81-5.13-25.62-10.28-38.38-15.52-2.07-.85-3.49-.6-5.41,.59-7.93,4.89-16,9.56-24.12,14.13-1.64,.92-2.63,1.66-2.9,3.7-1.8,13.46-3.84,26.89-5.67,40.35-1,7.33-3.88,10.05-11.26,10.05-21.59,0-43.18,0-64.77,0-7.03,0-9.96-2.7-10.91-9.55-1.86-13.46-3.91-26.88-5.68-40.35-.29-2.23-1.35-3.02-3.11-4.01-8.01-4.5-15.97-9.1-23.8-13.92-1.87-1.15-3.18-1.6-5.32-.71-12.65,5.21-25.36,10.25-38.07,15.32-6.68,2.67-10.13,1.49-13.7-4.66-10.81-18.63-21.62-37.25-32.37-55.91-1.09-1.89-1.83-4-3.1-6.83ZM168.64,112.31c-32.93-.04-59.81,26.68-59.92,59.56-.11,33.16,26.6,60.13,59.65,60.22,33.13,.09,60.11-26.69,60.16-59.72,.05-33.01-26.88-60.03-59.88-60.06Z"/></svg>