<?xml version="1.0" encoding="UTF-8"?><svg id="a" xmlns="http://www.w3.org/2000/svg" viewBox="0 0 227.7 287.66"><defs><style>.b{fill:#f33;}</style></defs><path class="b" d="M113.9,89.9c28.7,0,57.4,0,86.1,0,10.4,0,15.11,4.74,14.2,14.96-2.02,22.6-4.29,45.18-6.44,67.77-2.1,21.97-4.18,43.94-6.28,65.9-.62,6.45-.95,12.95-1.97,19.34-2.72,17.05-16.25,29.36-33.46,29.53-34.81,.33-69.63,.37-104.43-.01-18.45-.2-32.35-14.57-33.91-32.91-2.14-25.09-4.76-50.14-7.16-75.21-2.11-22.09-4.2-44.19-6.29-66.28-.31-3.23-.67-6.45-.86-9.69-.47-8.01,4.51-13.37,12.54-13.38,29.32-.04,58.65-.01,87.97-.01Zm-20.37,98.88h.02c-.22-3.36-.44-6.72-.65-10.08-1.01-15.92-1.96-31.85-3.04-47.77-.41-6.01-5.33-10.71-11.22-11.07-5.85-.35-11.43,3.81-12.43,9.66-.41,2.41-.14,4.97,0,7.45,1.14,18.54,2.33,37.07,3.51,55.61,1.14,17.79,2.2,35.58,3.49,53.36,.53,7.34,6.14,12.17,12.86,11.63,6.86-.55,11.4-6.45,10.91-13.93-1.2-18.28-2.31-36.57-3.46-54.86Zm68.22-55.61c.32-7.23-4.27-13-11.4-13.31-7.16-.31-12.12,4.96-12.61,13.17-.79,13.31-1.71,26.62-2.55,39.93-1.53,24.01-3.1,48.02-4.53,72.03-.39,6.64,4.76,12.21,11.2,12.6,6.36,.38,11.84-4.2,12.56-10.75,.45-4.09,.58-8.21,.84-12.31,2.14-33.46,4.28-66.93,6.49-101.35Z"/><path class="b" d="M65.65,36c.32-4.17,.3-7.94,.96-11.58C69.12,10.49,81.1,.31,95.25,.11c12.1-.17,24.21-.12,36.31-.03,17.03,.12,30,13.09,30.23,30.08,.02,1.84,0,3.68,0,5.83,7.35,0,14.43,0,21.5,0,10.48,0,20.96-.02,31.44,0,7.91,.03,12.88,4.94,12.94,12.77,.04,5.24,.02,10.48,0,15.72-.03,8.66-4.76,13.42-13.42,13.42-66.88,0-133.75,0-200.63,0-.62,0-1.25,.02-1.87-.01-6.51-.29-11.53-5.25-11.67-11.77-.13-5.99-.1-11.98-.01-17.96,.1-7.16,5.13-12.14,12.38-12.17,16.47-.06,32.94-.02,49.41-.02,1.23,0,2.46,0,3.79,0Zm24.26-.18h47.92c0-1.39,0-2.61,0-3.83-.02-6.06-1.94-7.97-8.06-7.97-10.7,0-21.4-.01-32.1,0-5.79,0-7.73,2.01-7.75,7.9,0,1.23,0,2.45,0,3.9Z"/><path class="b" d="M89.91,35.82c0-1.45,0-2.67,0-3.9,.02-5.89,1.96-7.89,7.75-7.9,10.7-.02,21.4-.01,32.1,0,6.13,0,8.04,1.91,8.06,7.97,0,1.22,0,2.44,0,3.83h-47.92Z"/></svg>