<?xml version="1.0" encoding="UTF-8"?><svg id="a" xmlns="http://www.w3.org/2000/svg" viewBox="0 0 340.87 408.8"><defs><style>.b{fill:#fff;}</style></defs><path class="b" d="M60.69,408.8c-4.77-1.27-9.63-2.28-14.3-3.84-26.84-8.97-42.8-27.58-45.41-55.68-3.11-33.48,1.19-66.39,13.81-97.73,7.52-18.68,18.77-34.8,37.17-44.76,11.72-6.34,24.31-9.38,37.49-9.15,4.11,.07,8.46,2.11,12.21,4.16,6.16,3.36,11.87,7.55,17.86,11.23,34.05,20.9,68.12,20.9,102.14-.08,4.86-3,9.8-5.92,14.36-9.34,8.05-6.05,16.93-6.81,26.49-5.44,26.48,3.8,45.29,18.17,57.99,41.3,11.39,20.76,16.49,43.32,18.79,66.57,1.15,11.62,1.72,23.36,1.57,35.04-.45,36.86-24.29,62.77-61.02,66.97-.41,.05-.77,.49-1.16,.75H60.69Z"/><path class="b" d="M266.48,98.43c.05,54.42-44.54,98.91-98.71,98.51-54.76-.41-98.25-43.99-98.28-98.47C69.46,43.89,113.61-.18,168.14,0c54.52,.18,98.3,44,98.34,98.43Z"/></svg>